REM DIRINDEX 1\4,1\2\5,1\2\6,1\3\7,1\3\8
REM DIRNAME folder01,folder02,folder03,folder04,folder05,folder06,folder07,folder08
TITLE ""
FILE "037_Day19_Check2_Phrases.mp3" MP3
  TRACK 01 AUDIO
    TITLE "0:"
    INDEX 01 00:00:00
  TRACK 02 AUDIO
    TITLE "4:cjc124_1191"
    INDEX 01 00:00:31
  TRACK 03 AUDIO
    TITLE "0:"
    INDEX 01 00:01:46
  TRACK 04 AUDIO
    TITLE "5:cjc124_1192"
    INDEX 01 00:02:02
  TRACK 05 AUDIO
    TITLE "0:"
    INDEX 01 00:03:64
  TRACK 06 AUDIO
    TITLE "6:cjc124_1193"
    INDEX 01 00:04:09
  TRACK 07 AUDIO
    TITLE "0:"
    INDEX 01 00:05:48
  TRACK 08 AUDIO
    TITLE "5:cjc124_1194"
    INDEX 01 00:06:14
  TRACK 09 AUDIO
    TITLE "0:"
    INDEX 01 00:08:07
  TRACK 10 AUDIO
    TITLE "6:cjc124_1195"
    INDEX 01 00:08:23
  TRACK 11 AUDIO
    TITLE "0:"
    INDEX 01 00:10:12
  TRACK 12 AUDIO
    TITLE "5:cjc124_1196"
    INDEX 01 00:10:51
  TRACK 13 AUDIO
    TITLE "0:"
    INDEX 01 00:12:09
  TRACK 14 AUDIO
    TITLE "6:cjc124_1197"
    INDEX 01 00:12:30
  TRACK 15 AUDIO
    TITLE "0:"
    INDEX 01 00:13:71
  TRACK 16 AUDIO
    TITLE "5:cjc124_1198"
    INDEX 01 00:14:35
  TRACK 17 AUDIO
    TITLE "0:"
    INDEX 01 00:16:12
  TRACK 18 AUDIO
    TITLE "6:cjc124_1199"
    INDEX 01 00:16:36
  TRACK 19 AUDIO
    TITLE "0:"
    INDEX 01 00:18:07
  TRACK 20 AUDIO
    TITLE "5:cjc124_1200"
    INDEX 01 00:18:44
  TRACK 21 AUDIO
    TITLE "0:"
    INDEX 01 00:20:16
  TRACK 22 AUDIO
    TITLE "6:cjc124_1201"
    INDEX 01 00:20:34
  TRACK 23 AUDIO
    TITLE "0:"
    INDEX 01 00:22:09
  TRACK 24 AUDIO
    TITLE "5:cjc124_1202"
    INDEX 01 00:22:46
  TRACK 25 AUDIO
    TITLE "0:"
    INDEX 01 00:24:33
  TRACK 26 AUDIO
    TITLE "6:cjc124_1203"
    INDEX 01 00:24:53
  TRACK 27 AUDIO
    TITLE "0:"
    INDEX 01 00:26:09
  TRACK 28 AUDIO
    TITLE "5:cjc124_1204"
    INDEX 01 00:26:50
  TRACK 29 AUDIO
    TITLE "0:"
    INDEX 01 00:28:39
  TRACK 30 AUDIO
    TITLE "6:cjc124_1205"
    INDEX 01 00:28:57
  TRACK 31 AUDIO
    TITLE "0:"
    INDEX 01 00:30:20
  TRACK 32 AUDIO
    TITLE "5:cjc124_1206"
    INDEX 01 00:30:59
  TRACK 33 AUDIO
    TITLE "0:"
    INDEX 01 00:32:41
  TRACK 34 AUDIO
    TITLE "6:cjc124_1207"
    INDEX 01 00:32:60
  TRACK 35 AUDIO
    TITLE "0:"
    INDEX 01 00:34:32
  TRACK 36 AUDIO
    TITLE "5:cjc124_1208"
    INDEX 01 00:34:71
  TRACK 37 AUDIO
    TITLE "0:"
    INDEX 01 00:36:72
  TRACK 38 AUDIO
    TITLE "6:cjc124_1209"
    INDEX 01 00:37:14
  TRACK 39 AUDIO
    TITLE "0:"
    INDEX 01 00:38:57
  TRACK 40 AUDIO
    TITLE "5:cjc124_1210"
    INDEX 01 00:39:21
  TRACK 41 AUDIO
    TITLE "0:"
    INDEX 01 00:40:64
  TRACK 42 AUDIO
    TITLE "6:cjc124_1211"
    INDEX 01 00:41:10
  TRACK 43 AUDIO
    TITLE "0:"
    INDEX 01 00:42:37
  TRACK 44 AUDIO
    TITLE "5:cjc124_1212"
    INDEX 01 00:43:01
  TRACK 45 AUDIO
    TITLE "0:"
    INDEX 01 00:44:36
  TRACK 46 AUDIO
    TITLE "6:cjc124_1213"
    INDEX 01 00:44:58
  TRACK 47 AUDIO
    TITLE "0:"
    INDEX 01 00:46:11
  TRACK 48 AUDIO
    TITLE "5:cjc124_1214"
    INDEX 01 00:46:54
  TRACK 49 AUDIO
    TITLE "0:"
    INDEX 01 00:48:42
  TRACK 50 AUDIO
    TITLE "6:cjc124_1215"
    INDEX 01 00:48:73
  TRACK 51 AUDIO
    TITLE "0:"
    INDEX 01 00:50:42
  TRACK 52 AUDIO
    TITLE "5:cjc124_1216"
    INDEX 01 00:51:07
  TRACK 53 AUDIO
    TITLE "0:"
    INDEX 01 00:52:61
  TRACK 54 AUDIO
    TITLE "6:cjc124_1217"
    INDEX 01 00:53:13
  TRACK 55 AUDIO
    TITLE "0:"
    INDEX 01 00:54:60
  TRACK 56 AUDIO
    TITLE "5:cjc124_1218"
    INDEX 01 00:55:20
  TRACK 57 AUDIO
    TITLE "0:"
    INDEX 01 00:57:17
  TRACK 58 AUDIO
    TITLE "6:cjc124_1219"
    INDEX 01 00:57:33
  TRACK 59 AUDIO
    TITLE "0:"
    INDEX 01 00:58:69
  TRACK 60 AUDIO
    TITLE "5:cjc124_1220"
    INDEX 01 00:59:36
  TRACK 61 AUDIO
    TITLE "0:"
    INDEX 01 01:01:13
  TRACK 62 AUDIO
    TITLE "6:cjc124_1221"
    INDEX 01 01:01:33
  TRACK 63 AUDIO
    TITLE "0:"
    INDEX 01 01:02:59
  TRACK 64 AUDIO
    TITLE "5:cjc124_1222"
    INDEX 01 01:03:24
  TRACK 65 AUDIO
    TITLE "0:"
    INDEX 01 01:05:01
  TRACK 66 AUDIO
    TITLE "6:cjc124_1223"
    INDEX 01 01:05:21
  TRACK 67 AUDIO
    TITLE "0:"
    INDEX 01 01:06:69
